<svg width="18" height="18" viewBox="0 0 18 18" fill="none" xmlns="http://www.w3.org/2000/svg">
<g clip-path="url(#clip0_2_1001)">
<path d="M7.75002 14.9C7.75002 15.1785 7.86065 15.4456 8.05756 15.6425C8.25448 15.8394 8.52155 15.95 8.80002 15.95C9.0785 15.95 9.34557 15.8394 9.54249 15.6425C9.7394 15.4456 9.85002 15.1785 9.85002 14.9V10.35H14.4C14.6785 10.35 14.9456 10.2394 15.1425 10.0425C15.3394 9.84557 15.45 9.5785 15.45 9.30002C15.45 9.02155 15.3394 8.75448 15.1425 8.55756C14.9456 8.36065 14.6785 8.25002 14.4 8.25002H9.85002V3.70002C9.85002 3.42155 9.7394 3.15448 9.54249 2.95756C9.34557 2.76065 9.0785 2.65002 8.80002 2.65002C8.52155 2.65002 8.25448 2.76065 8.05756 2.95756C7.86065 3.15448 7.75002 3.42155 7.75002 3.70002V8.25002H3.20002C2.92155 8.25002 2.65448 8.36065 2.45756 8.55756C2.26065 8.75448 2.15002 9.02155 2.15002 9.30002C2.15002 9.5785 2.26065 9.84557 2.45756 10.0425C2.65448 10.2394 2.92155 10.35 3.20002 10.35H7.75002V14.9Z" fill="white"/>
</g>
<defs>
<clipPath id="clip0_2_1001">
<rect width="16.8" height="16.8" fill="white" transform="translate(0.400024 0.900024)"/>
</clipPath>
</defs>
</svg>
