<svg width="36" height="37" viewBox="0 0 36 37" fill="none" xmlns="http://www.w3.org/2000/svg">
<path d="M32.6475 13.7232L9.468 11.1582L8.055 5.80437C8.00588 5.6248 7.89935 5.46624 7.75167 5.35289C7.604 5.23954 7.42328 5.17763 7.23712 5.17662H3.7575C3.63174 5.00732 3.46848 4.86946 3.28052 4.77382C3.09256 4.67818 2.88501 4.62737 2.67412 4.62537C2.3037 4.62537 1.94845 4.77252 1.68652 5.03445C1.42459 5.29638 1.27744 5.65163 1.27744 6.02205C1.27744 6.39248 1.42459 6.74773 1.68652 7.00966C1.94845 7.27159 2.3037 7.41874 2.67412 7.41874C3.12412 7.41874 3.50437 7.19374 3.75975 6.86524H6.58575L12.4695 29.1402C11.8277 29.8234 11.4697 30.7251 11.4682 31.6625C11.4678 32.149 11.5633 32.6309 11.7492 33.0805C11.9352 33.53 12.2079 33.9386 12.5519 34.2826C12.8959 34.6267 13.3043 34.8996 13.7539 35.0857C14.2034 35.2718 14.6852 35.3674 15.1717 35.3671C16.1548 35.3674 17.0977 34.9773 17.7932 34.2827C18.4888 33.588 18.88 32.6455 18.8809 31.6625C18.8789 31.3807 18.8438 31.1002 18.7762 30.8266H25.0009C24.9343 31.1003 24.8996 31.3808 24.8974 31.6625C24.8974 33.71 26.5579 35.3671 28.6054 35.3671C30.6529 35.3671 32.31 33.71 32.31 31.6625C32.3103 30.6793 31.9201 29.7362 31.2251 29.0406C30.5302 28.345 29.5875 27.954 28.6042 27.9534C27.5355 27.9534 26.5792 28.4146 25.902 29.138H17.874C17.5295 28.765 17.1116 28.4673 16.6466 28.2635C16.1816 28.0596 15.6795 27.954 15.1717 27.9534C14.7442 27.9534 14.3415 28.0411 13.9601 28.1739L13.7554 27.4021H30.1612C30.7917 27.3892 31.3996 27.1648 31.8872 26.7649C32.3748 26.365 32.7139 25.8129 32.85 25.1971L34.6219 16.4244C34.6518 16.2709 34.6668 16.1149 34.6669 15.9586C34.6677 15.4017 34.4615 14.8644 34.0883 14.4511C33.7151 14.0378 33.2016 13.7791 32.6475 13.7232ZM28.6065 31.9932C28.5184 31.993 28.4339 31.958 28.3714 31.8959C28.3088 31.8337 28.2733 31.7495 28.2724 31.6614C28.2757 31.4746 28.4242 31.3261 28.6076 31.3261C28.791 31.3261 28.9395 31.4746 28.9417 31.6602C28.9406 31.7482 28.9049 31.8321 28.8424 31.894C28.7799 31.9559 28.6956 31.9907 28.6076 31.991L28.6065 31.9932ZM30.609 23.5614L31.6755 22.4926L31.3177 24.2701L30.609 23.5614ZM14.3494 13.3947L15.5137 14.5625L14.0625 16.0137L12.6079 14.5625L13.8307 13.3385L14.3494 13.3947ZM19.4096 13.955L20.0149 14.5625L18.5636 16.0137L17.109 14.5625L17.883 13.7862L19.4096 13.955ZM10.8337 16.3355L11.8125 15.359L13.2637 16.8125L11.8125 18.2637L11.1769 17.6304L10.8349 16.3344L10.8337 16.3355ZM10.5019 15.0755L10.1329 13.6805L11.016 14.5636L10.5019 15.0755ZM24.5137 19.0625L23.0625 20.5137L21.6079 19.0625L23.0614 17.6079L24.5137 19.0625ZM23.8579 16.8125L25.3114 15.359L26.7626 16.8125L25.3114 18.266L23.8579 16.8125ZM20.8125 18.2637L19.3579 16.8125L20.8114 15.3579L22.2626 16.8114L20.8125 18.2637ZM20.0137 19.0625L18.5625 20.5137L17.109 19.0625L18.5625 17.6079L20.0137 19.0625ZM16.3125 18.2637L14.8579 16.8125L16.3114 15.3579L17.7626 16.8114L16.3125 18.2637ZM15.5137 19.0625L14.0625 20.5137L12.6079 19.0625L14.0614 17.6079L15.5137 19.0625ZM11.8125 19.8579L13.2637 21.3114L12.3817 22.1922L11.7742 19.8927L11.8114 19.8556L11.8125 19.8579ZM12.7147 23.4545L14.0614 22.1079L15.5126 23.5614L14.0614 25.0126L12.7901 23.7414L12.7147 23.4545ZM14.859 21.3114L16.3102 19.8567L17.7649 21.3102L16.3136 22.7615L14.8601 21.3102L14.859 21.3114ZM18.5625 22.1067L20.016 23.5602L18.5625 25.0115L17.109 23.5602L18.5625 22.1067ZM19.359 21.3102L20.8125 19.8556L22.2637 21.3091L20.8125 22.7604L19.359 21.3102ZM23.0602 22.1056L24.5149 23.5591L23.0636 25.0104L21.6101 23.5569L23.0602 22.1056ZM23.859 21.3091L25.3102 19.8545L26.7649 21.308L25.3136 22.7592L23.859 21.3091ZM26.109 19.0591L27.5602 17.6045L29.0149 19.058L27.5636 20.5092L26.109 19.0591ZM28.359 16.8091L29.8102 15.3545L31.2637 16.8125L29.8125 18.266L28.3579 16.8114L28.359 16.8091ZM27.5602 16.0126L26.2609 14.7121L28.6031 14.9709L27.5602 16.0126ZM24.516 14.5625L23.0647 16.016L21.6101 14.5625L21.9364 14.2362L24.471 14.5175L24.516 14.5625ZM16.3147 13.7637L16.1437 13.595L16.4509 13.6287L16.3159 13.7637H16.3147ZM11.8147 13.766L11.0835 13.0347L12.3997 13.181L11.8147 13.766ZM16.3147 24.3579L17.6704 25.7135H14.9591L16.3147 24.3579ZM20.8147 24.3579L22.1704 25.7146H19.4569L20.8147 24.3579ZM25.3147 24.3579L26.6726 25.7157H23.9569L25.3147 24.3579ZM26.1101 23.5614L27.5636 22.1067L29.0149 23.5602L27.5636 25.0115L26.1101 23.5614ZM28.3601 21.3114L29.8136 19.8579L31.2649 21.3091L29.8136 22.7637L28.359 21.3125L28.3601 21.3114ZM32.0636 20.5126L30.6101 19.0614L32.0614 17.6079L32.562 18.1074L32.0782 20.4969L32.0625 20.5137L32.0636 20.5126ZM32.6261 15.4501L32.0636 16.0126L31.3211 15.2735L32.4652 15.3995C32.526 15.4085 32.5777 15.4287 32.6272 15.449L32.6261 15.4501ZM15.174 31.9921C15.0889 31.9872 15.0089 31.9499 14.9504 31.8879C14.8918 31.8258 14.8593 31.7438 14.8593 31.6586C14.8593 31.5733 14.8918 31.4913 14.9504 31.4292C15.0089 31.3672 15.0889 31.3299 15.174 31.325C15.2588 31.3299 15.3386 31.3671 15.3969 31.4289C15.4552 31.4907 15.4877 31.5725 15.4877 31.6574C15.4877 31.7424 15.4552 31.8242 15.3969 31.886C15.3386 31.9478 15.2588 31.9849 15.174 31.9899V31.9921ZM30.1624 25.7146H28.4557L29.8136 24.3567L30.8599 25.403C30.6495 25.5942 30.384 25.7292 30.1624 25.7146Z" fill="#FCB836"/>
</svg>
