<svg width="154" height="153" viewBox="0 0 154 153" fill="none" xmlns="http://www.w3.org/2000/svg">
<rect x="0.25" width="153" height="153" rx="75" fill="black" fill-opacity="0.1"/>
<path d="M103.779 70.4141C83.7653 67.6649 66.507 82.5252 67.6666 102.236M60.0972 64.3888C60.0972 65.9948 60.7352 67.5351 61.8708 68.6707C63.0065 69.8064 64.5467 70.4444 66.1528 70.4444C67.7588 70.4444 69.299 69.8064 70.4347 68.6707C71.5703 67.5351 72.2083 65.9948 72.2083 64.3888C72.2083 62.7828 71.5703 61.2425 70.4347 60.1069C69.299 58.9712 67.7588 58.3333 66.1528 58.3333C64.5467 58.3333 63.0065 58.9712 61.8708 60.1069C60.7352 61.2425 60.0972 62.7828 60.0972 64.3888Z" stroke="white" stroke-width="4.54167" stroke-linecap="round" stroke-linejoin="round"/>
<path d="M49.5 79.7277C57.9172 78.562 65.4715 82.6283 69.556 89.1138" stroke="white" stroke-width="4.54167" stroke-linecap="round" stroke-linejoin="round"/>
<path d="M49.5 68.6278C49.5 61.8456 49.5 58.4544 50.8201 55.8627C51.9812 53.5839 53.8339 51.7312 56.1127 50.5701C58.7044 49.25 62.0956 49.25 68.8778 49.25H84.6222C91.4044 49.25 94.7956 49.25 97.3873 50.5701C99.6661 51.7312 101.519 53.5839 102.68 55.8627C104 58.4544 104 61.8456 104 68.6278V84.3722C104 91.1544 104 94.5456 102.68 97.1373C101.519 99.4161 99.6661 101.269 97.3873 102.43C94.7956 103.75 91.4044 103.75 84.6222 103.75H68.8778C62.0956 103.75 58.7044 103.75 56.1127 102.43C53.8339 101.269 51.9812 99.4161 50.8201 97.1373C49.5 94.5456 49.5 91.1544 49.5 84.3722V68.6278Z" stroke="white" stroke-width="4.54167" stroke-linecap="round" stroke-linejoin="round"/>
</svg>
